# xmcd
#
# Track frame offsets: 
#        150
#        14753
#        23661
#        38426
#        55087
#        68760
#        79099
#        94647
#        109888
#        123644
#        134749
#        150391
#        165261
#        176315
#        194469
#        210651
#        227120
#        239647
#        250763
#        264388
#        281394
#        293121
#
# Disc length: 4220 seconds
#
# Revision: 0
# Processed by: cddbd v1.5.1PL2 Copyright (c) Steve Scherf et al.
# Submitted via: ExactAudioCopy v0.95b2
#
DISCID=2b107a16
DTITLE=Various Artist - Любимые Шлягеры 70-Х
DYEAR=2005
DGENRE=Retro
TTITLE0=Веселые Ребята/Отчего
TTITLE1=Голубые Гитары/Зачем
TTITLE2=Здравствуй Песня/Не Обещай
TTITLE3=Герман Анна/Надежда
TTITLE4=Игорь Иванов/Из Вагайтов
TTITLE5=Кристалинская/А Снег Идёт
TTITLE6=Лещенко Лев/Не Минуты Покоя
TTITLE7=Обдзинский Валерий/Эти Глаза Напротив
TTITLE8=Лейся Песня/Песенка Про Сапожника
TTITLE9=Макаров/Последняя Электричка
TTITLE10=Бродская Нина/Кто Тебе Сказал
TTITLE11=Магомаев Муслим/Свадьба
TTITLE12=Пахоменко/Стоят Девчонки
TTITLE13=Пламя/Снег Кружится
TTITLE14=Песняры/Вологда
TTITLE15=Поющие Гитары/Ты Приходишь Стороной
TTITLE16=Пугачёва Алла/22+28
TTITLE17=Самоцветы/Увезу Тебя В Тундру
TTITLE18=Синяя Птица/Ты Мне Не Снишься
TTITLE19=Цветы/Честно Говоря
TTITLE20=Пьеха Эдита/Наш Сосед
TTITLE21=Зодиак/Зодиак
EXTD=
EXTT0=
EXTT1=
EXTT2=
EXTT3=
EXTT4=
EXTT5=
EXTT6=
EXTT7=
EXTT8=
EXTT9=
EXTT10=
EXTT11=
EXTT12=
EXTT13=
EXTT14=
EXTT15=
EXTT16=
EXTT17=
EXTT18=
EXTT19=
EXTT20=
EXTT21=
PLAYORDER=
